<?xml version="1.0" encoding="utf-8"?>
<!-- Generator: Adobe Illustrator 19.0.0, SVG Export Plug-In . SVG Version: 6.00 Build 0)  -->
<svg version="1.1" id="Layer_1" xmlns="http://www.w3.org/2000/svg" xmlns:xlink="http://www.w3.org/1999/xlink" x="0px" y="0px"
	 viewBox="0 0 1024 768" style="enable-background:new 0 0 1024 768;" xml:space="preserve">
<style type="text/css">
	.st0{fill:#7C5FC4;}
	.st1{fill:#0BC0AA;}
</style>
<g id="XMLID_14_">
	<path id="XMLID_29_" class="st0" d="M549,381.4c-56.9,0-103.3-46.3-103.3-103.3V174.9c0-18,14.7-32.7,32.7-32.7h30.1
		c7.5,0,13.6,6.1,13.6,13.6c0,7.5-6.1,13.6-13.6,13.6h-30.1c-3,0-5.4,2.4-5.4,5.4v103.2c0,41.9,34.1,76,76,76s76-34.1,76-76V174.9
		c0-3-2.4-5.4-5.4-5.4h-30.1c-7.5,0-13.6-6.1-13.6-13.6c0-7.5,6.1-13.6,13.6-13.6h30.1c18,0,32.7,14.7,32.7,32.7v103.2
		C652.2,335.1,605.9,381.4,549,381.4L549,381.4z M549,372.5"/>
	<path id="XMLID_26_" class="st0" d="M432.2,609.2c-71.9,0-130.4-58.5-130.4-130.4v-14c0-7.5,6.1-13.6,13.6-13.6
		c7.5,0,13.6,6.1,13.6,13.6v14c0,56.9,46.3,103.1,103.1,103.1c56.9,0,103.1-46.3,103.1-103.1v-59.2c0-7.5,6.1-13.6,13.6-13.6
		c7.5,0,13.6,6.1,13.6,13.6v59.2C562.6,550.7,504.1,609.2,432.2,609.2L432.2,609.2z M432.2,609.2"/>
	<path id="XMLID_22_" class="st1" d="M315.5,417.4c-53.6,0-97.3-43.6-97.3-97.3c0-53.6,43.6-97.3,97.3-97.3
		c53.6,0,97.3,43.6,97.3,97.3C412.7,373.8,369.1,417.4,315.5,417.4L315.5,417.4z M315.5,250.1c-38.6,0-70,31.4-70,70
		c0,38.6,31.4,70,70,70c38.6,0,70-31.4,70-70C385.5,281.5,354.1,250.1,315.5,250.1L315.5,250.1z M315.5,250.1"/>
	<path id="XMLID_19_" class="st1" d="M300.2,320.1c0-8.4,6.8-15.3,15.2-15.3c8.4,0,15.2,6.8,15.2,15.3c0,8.4-6.8,15.2-15.2,15.2
		C307,335.4,300.2,328.6,300.2,320.1L300.2,320.1z M300.2,320.1"/>
	<path id="XMLID_15_" class="st1" d="M315.5,349c-15.9,0-28.9-13-28.9-28.9c0-15.9,13-28.9,28.9-28.9c15.9,0,28.9,13,28.9,28.9
		C344.3,336,331.4,349,315.5,349L315.5,349z M315.5,318.5c-0.9,0-1.6,0.7-1.6,1.6c0,0.9,0.7,1.6,1.6,1.6c0.9,0,1.6-0.7,1.6-1.6
		C317.1,319.2,316.4,318.5,315.5,318.5L315.5,318.5z M315.5,318.5"/>
</g>
</svg>
