<?xml version="1.0" encoding="utf-8"?>
<!-- Generator: Adobe Illustrator 19.0.0, SVG Export Plug-In . SVG Version: 6.00 Build 0)  -->
<svg version="1.1" id="Layer_1" xmlns="http://www.w3.org/2000/svg" xmlns:xlink="http://www.w3.org/1999/xlink" x="0px" y="0px"
	 viewBox="0 0 1024 768" style="enable-background:new 0 0 1024 768;" xml:space="preserve">
<style type="text/css">
	.st0{fill:#0BC0AA;}
	.st1{fill:#939598;}
	.st2{fill:#7C5FC4;}
</style>
<g id="XMLID_73_">
	<path id="XMLID_74_" class="st0" d="M218,446.6h9.1v76.8H218V446.6z"/>
	<path id="XMLID_76_" class="st0" d="M242,484.6c0-2.3-0.1-4.5-0.2-6.5c-0.1-2-0.2-3.9-0.2-5.5h8c0,1.4,0,2.7,0.1,4.1
		c0.1,1.4,0.1,2.8,0.1,4.2h0.2c0.6-1.2,1.4-2.4,2.4-3.6c1-1.2,2.3-2.2,3.7-3.1c1.4-0.9,3.1-1.6,4.9-2.2c1.8-0.5,3.8-0.8,5.9-0.8
		c3.3,0,6.2,0.5,8.6,1.5c2.4,1,4.4,2.4,6,4.2c1.6,1.8,2.8,4,3.5,6.6c0.8,2.6,1.1,5.4,1.1,8.4v31.3h-8.5v-30.5
		c0-4.3-0.9-7.6-2.8-10.1c-1.9-2.5-4.8-3.7-8.8-3.7c-2.7,0-5.1,0.5-7.1,1.4c-2,0.9-3.6,2.3-4.9,4c-1.3,1.7-2.2,3.8-2.8,6.2
		c-0.6,2.4-0.9,5-0.9,7.9v24.7H242V484.6z"/>
	<path id="XMLID_78_" class="st0" d="M335.6,485.3c-1.8-2.2-3.8-3.7-5.9-4.7c-2.1-1-4.4-1.5-6.9-1.5c-2.8,0-5.3,0.5-7.5,1.5
		c-2.2,1-4,2.3-5.4,4.1c-1.4,1.7-2.5,3.7-3.2,6c-0.7,2.3-1.1,4.7-1.1,7.3c0,2.6,0.4,5,1.2,7.3c0.8,2.3,2,4.3,3.5,6
		c1.5,1.7,3.3,3.1,5.4,4.1c2.1,1,4.4,1.5,7,1.5c5.6,0,9.9-2.1,12.9-6.3l6.3,6c-2.5,2.8-5.3,4.9-8.7,6.2c-3.3,1.3-6.8,2-10.5,2
		c-3.9,0-7.5-0.7-10.7-2s-6-3.1-8.3-5.5c-2.3-2.4-4-5.2-5.3-8.5c-1.3-3.3-1.9-6.8-1.9-10.7c0-3.8,0.6-7.4,1.9-10.6
		c1.3-3.3,3.1-6.1,5.4-8.5c2.3-2.4,5.1-4.2,8.3-5.6c3.2-1.3,6.8-2,10.7-2c3.8,0,7.3,0.7,10.7,2s6.3,3.3,8.8,6.1L335.6,485.3z"/>
	<path id="XMLID_80_" class="st0" d="M394.4,514.1c-3,3.9-6.4,6.6-10,8.2c-3.6,1.6-7.8,2.3-12.6,2.3c-4,0-7.6-0.7-10.7-2.1
		c-3.2-1.4-5.9-3.3-8.1-5.7c-2.2-2.4-3.9-5.2-5.1-8.5c-1.2-3.3-1.8-6.7-1.8-10.4c0-3.9,0.7-7.5,2-10.8c1.3-3.3,3.1-6.1,5.4-8.5
		c2.3-2.3,5.1-4.2,8.2-5.5c3.2-1.3,6.6-2,10.4-2c3.5,0,6.8,0.6,9.8,1.8c3,1.2,5.5,2.9,7.6,5.2c2.1,2.3,3.8,5.1,4.9,8.3
		c1.2,3.3,1.7,7,1.7,11.2v2.7h-41c0.1,2.2,0.7,4.2,1.6,6.2c0.9,2,2.1,3.7,3.5,5.2c1.4,1.5,3.1,2.7,5.1,3.5c2,0.9,4.1,1.3,6.4,1.3
		c3.7,0,6.8-0.7,9.3-2c2.5-1.3,4.8-3.2,6.8-5.7L394.4,514.1z M387.1,493.4c-0.1-4.3-1.6-7.8-4.2-10.4c-2.7-2.6-6.4-3.9-11.1-3.9
		c-4.7,0-8.5,1.3-11.4,3.9c-2.9,2.6-4.6,6.1-5.2,10.4H387.1z"/>
	<path id="XMLID_83_" class="st0" d="M406.6,484.6c0-2.3-0.1-4.5-0.2-6.5c-0.1-2-0.2-3.9-0.2-5.5h8c0,1.4,0,2.7,0.1,4.1
		c0.1,1.4,0.1,2.8,0.1,4.2h0.2c0.6-1.2,1.4-2.4,2.4-3.6c1-1.2,2.3-2.2,3.7-3.1c1.4-0.9,3.1-1.6,4.9-2.2c1.8-0.5,3.8-0.8,5.9-0.8
		c3.3,0,6.2,0.5,8.6,1.5c2.4,1,4.4,2.4,6,4.2c1.6,1.8,2.8,4,3.5,6.6c0.8,2.6,1.1,5.4,1.1,8.4v31.3h-8.5v-30.5
		c0-4.3-0.9-7.6-2.8-10.1c-1.9-2.5-4.8-3.7-8.8-3.7c-2.7,0-5.1,0.5-7.1,1.4c-2,0.9-3.6,2.3-4.9,4c-1.3,1.7-2.2,3.8-2.8,6.2
		c-0.6,2.4-0.9,5-0.9,7.9v24.7h-8.5V484.6z"/>
	<path id="XMLID_85_" class="st0" d="M492,479.7h-15v25.4c0,1.7,0,3.2,0.1,4.6c0.1,1.4,0.4,2.6,0.9,3.7c0.5,1,1.3,1.9,2.3,2.5
		c1,0.6,2.5,0.9,4.3,0.9c1.2,0,2.5-0.1,3.8-0.4c1.3-0.3,2.5-0.7,3.7-1.3l0.3,7.7c-1.4,0.7-3.1,1.1-4.8,1.4c-1.8,0.3-3.5,0.4-5,0.4
		c-3,0-5.5-0.4-7.3-1.2c-1.8-0.8-3.2-1.9-4.2-3.4c-1-1.4-1.7-3.2-2-5.4c-0.3-2.1-0.5-4.5-0.5-7.1v-27.9h-11.1v-7.2h11.1v-14.4h8.5
		v14.4h15V479.7z"/>
	<path id="XMLID_87_" class="st0" d="M501.2,446.6h9.1v32.5h41v-32.5h9.1v76.8h-9.1v-35.8h-41v35.8h-9.1V446.6z"/>
	<path id="XMLID_89_" class="st0" d="M620.5,514.1c-3,3.9-6.4,6.6-10,8.2c-3.6,1.6-7.8,2.3-12.6,2.3c-4,0-7.6-0.7-10.7-2.1
		c-3.2-1.4-5.9-3.3-8.1-5.7c-2.2-2.4-3.9-5.2-5.1-8.5c-1.2-3.3-1.8-6.7-1.8-10.4c0-3.9,0.7-7.5,2-10.8c1.3-3.3,3.1-6.1,5.4-8.5
		c2.3-2.3,5.1-4.2,8.2-5.5c3.2-1.3,6.6-2,10.4-2c3.5,0,6.8,0.6,9.8,1.8c3,1.2,5.5,2.9,7.6,5.2c2.1,2.3,3.8,5.1,4.9,8.3
		c1.2,3.3,1.7,7,1.7,11.2v2.7h-41c0.1,2.2,0.7,4.2,1.6,6.2c0.9,2,2.1,3.7,3.5,5.2c1.4,1.5,3.1,2.7,5.1,3.5c2,0.9,4.1,1.3,6.4,1.3
		c3.7,0,6.8-0.7,9.3-2c2.5-1.3,4.8-3.2,6.8-5.7L620.5,514.1z M613.3,493.4c-0.1-4.3-1.6-7.8-4.2-10.4c-2.7-2.6-6.4-3.9-11.1-3.9
		c-4.7,0-8.5,1.3-11.4,3.9c-2.9,2.6-4.6,6.1-5.2,10.4H613.3z"/>
	<path id="XMLID_92_" class="st0" d="M632.1,479.1c2.6-2.7,5.7-4.6,9.3-5.9c3.6-1.3,7.2-1.9,10.9-1.9c7.5,0,12.9,1.8,16.3,5.3
		c3.3,3.5,5,8.9,5,16.2v21.8c0,1.4,0.1,2.9,0.2,4.5c0.1,1.6,0.3,3,0.5,4.3h-8.1c-0.3-1.2-0.5-2.4-0.5-3.8c0-1.4-0.1-2.7-0.1-3.7
		h-0.2c-1.7,2.6-3.9,4.7-6.7,6.4c-2.8,1.7-6.1,2.5-10,2.5c-2.6,0-5-0.3-7.3-1c-2.3-0.7-4.3-1.6-6-2.9c-1.7-1.3-3.1-2.8-4.1-4.7
		c-1-1.9-1.5-4-1.5-6.5c0-4.2,1.1-7.5,3.3-9.9c2.2-2.4,4.9-4.2,8.1-5.3c3.2-1.2,6.7-1.9,10.4-2.2c3.7-0.3,7.1-0.4,10.2-0.4h3.3v-1.5
		c0-3.7-1.1-6.5-3.3-8.3c-2.2-1.9-5.3-2.8-9.3-2.8c-2.7,0-5.4,0.5-8.1,1.4c-2.6,0.9-5,2.3-7,4.2L632.1,479.1z M656.6,498.9
		c-5.4,0-9.7,0.8-12.9,2.3c-3.2,1.5-4.8,4-4.8,7.5c0,3.2,1.1,5.4,3.2,6.8c2.1,1.3,4.8,2,8,2c2.5,0,4.6-0.4,6.5-1.2
		c1.8-0.8,3.4-1.9,4.6-3.3c1.2-1.4,2.2-3,2.8-4.8c0.7-1.8,1-3.8,1.1-5.9v-3.3H656.6z"/>
	<path id="XMLID_95_" class="st0" d="M687.1,441.4h8.5v82h-8.5V441.4z"/>
	<path id="XMLID_97_" class="st0" d="M737.5,479.7h-15v25.4c0,1.7,0,3.2,0.1,4.6c0.1,1.4,0.4,2.6,0.9,3.7c0.5,1,1.3,1.9,2.3,2.5
		c1,0.6,2.5,0.9,4.3,0.9c1.2,0,2.5-0.1,3.8-0.4c1.3-0.3,2.5-0.7,3.7-1.3l0.3,7.7c-1.4,0.7-3.1,1.1-4.8,1.4c-1.8,0.3-3.5,0.4-5,0.4
		c-3,0-5.5-0.4-7.3-1.2c-1.8-0.8-3.2-1.9-4.2-3.4c-1-1.4-1.7-3.2-2-5.4c-0.3-2.1-0.5-4.5-0.5-7.1v-27.9H703v-7.2h11.1v-14.4h8.5
		v14.4h15V479.7z"/>
	<path id="XMLID_99_" class="st0" d="M745.3,441.4h8.5v38.3h0.2c0.6-1,1.4-2,2.4-3c1-1,2.2-1.9,3.6-2.7c1.4-0.8,3-1.4,4.7-2
		c1.7-0.5,3.6-0.8,5.5-0.8c3.3,0,6.2,0.5,8.6,1.5c2.4,1,4.4,2.4,6,4.2c1.6,1.8,2.8,4,3.5,6.6c0.8,2.6,1.1,5.4,1.1,8.4v31.3h-8.5
		v-30.5c0-4.3-0.9-7.6-2.8-10.1c-1.9-2.5-4.8-3.7-8.8-3.7c-2.7,0-5.1,0.5-7.1,1.4c-2,0.9-3.6,2.3-4.9,4c-1.3,1.7-2.2,3.8-2.8,6.2
		c-0.6,2.4-0.9,5-0.9,7.9v24.7h-8.5V441.4z"/>
</g>
<g id="XMLID_15_">
	<path id="XMLID_16_" class="st1" d="M197.8,583.3c-4.8,2.6-10.2,3.9-16.1,3.9c-3,0-5.8-0.5-8.3-1.5c-2.5-1-4.7-2.3-6.5-4.1
		s-3.2-3.9-4.3-6.4c-1-2.5-1.5-5.3-1.5-8.3c0-3.1,0.5-5.9,1.5-8.5c1-2.5,2.4-4.7,4.3-6.5c1.8-1.8,4-3.2,6.5-4.2
		c2.5-1,5.3-1.5,8.3-1.5c3,0,5.8,0.4,8.4,1.1c2.6,0.7,4.9,2,7,3.8l-5.1,5.2c-1.2-1.2-2.8-2.1-4.5-2.8c-1.8-0.7-3.7-1-5.6-1
		c-2,0-3.8,0.4-5.5,1.1c-1.6,0.7-3,1.7-4.2,3c-1.2,1.3-2.1,2.7-2.7,4.4c-0.6,1.7-1,3.5-1,5.4c0,2.1,0.3,4,1,5.8
		c0.6,1.8,1.5,3.3,2.7,4.6c1.2,1.3,2.6,2.3,4.2,3c1.6,0.7,3.5,1.1,5.5,1.1c1.8,0,3.4-0.2,5-0.5c1.6-0.3,2.9-0.8,4.2-1.5v-9.2h-8
		v-6.3h14.9V583.3z"/>
	<path id="XMLID_18_" class="st1" d="M209.3,575.2c0.2,2,1,3.5,2.3,4.6c1.3,1.1,2.9,1.6,4.8,1.6c1.7,0,3-0.3,4.2-1
		c1.1-0.7,2.1-1.5,2.9-2.6l4.7,3.6c-1.5,1.9-3.3,3.3-5.2,4.1c-1.9,0.8-3.9,1.2-6,1.2c-2,0-3.9-0.3-5.6-1s-3.3-1.6-4.6-2.8
		c-1.3-1.2-2.3-2.7-3.1-4.4c-0.8-1.7-1.1-3.6-1.1-5.7c0-2.1,0.4-4,1.1-5.7c0.8-1.7,1.8-3.2,3.1-4.4c1.3-1.2,2.8-2.1,4.6-2.8
		c1.8-0.7,3.6-1,5.6-1c1.8,0,3.5,0.3,5,1c1.5,0.6,2.8,1.6,3.9,2.8c1.1,1.2,1.9,2.7,2.5,4.5c0.6,1.8,0.9,3.8,0.9,6.1v1.8H209.3z
		 M222.9,570.3c0-1.9-0.6-3.5-1.8-4.6c-1.2-1.1-2.8-1.7-4.9-1.7c-2,0-3.5,0.6-4.7,1.7c-1.2,1.1-1.9,2.7-2.1,4.6H222.9z"/>
	<path id="XMLID_21_" class="st1" d="M231.2,565.3v-5.6h5.4v-7.6h6.6v7.6h7.3v5.6h-7.3v11.6c0,1.3,0.2,2.4,0.7,3.1
		c0.5,0.8,1.5,1.2,2.9,1.2c0.6,0,1.2-0.1,1.9-0.2c0.7-0.1,1.2-0.3,1.7-0.6v5.6c-0.7,0.3-1.5,0.6-2.6,0.7c-1,0.1-1.9,0.2-2.7,0.2
		c-1.8,0-3.2-0.2-4.3-0.6c-1.1-0.4-2-1-2.6-1.8c-0.6-0.8-1.1-1.8-1.3-2.9c-0.2-1.2-0.4-2.5-0.4-4.1v-12.1H231.2z"/>
	<path id="XMLID_23_" class="st1" d="M265.6,559.7h7.2l5.7,18.5h0.1l5.3-18.5h7.2l5.7,18.5h0.1l5.5-18.5h6.7l-9,26.4h-6.5l-6.3-18
		h-0.1l-5.6,18h-6.8L265.6,559.7z"/>
	<path id="XMLID_25_" class="st1" d="M316.9,575.2c0.2,2,1,3.5,2.3,4.6c1.3,1.1,2.9,1.6,4.8,1.6c1.7,0,3-0.3,4.2-1
		c1.1-0.7,2.1-1.5,2.9-2.6l4.7,3.6c-1.5,1.9-3.3,3.3-5.2,4.1c-1.9,0.8-3.9,1.2-6,1.2c-2,0-3.9-0.3-5.6-1s-3.3-1.6-4.6-2.8
		c-1.3-1.2-2.3-2.7-3.1-4.4c-0.8-1.7-1.1-3.6-1.1-5.7c0-2.1,0.4-4,1.1-5.7c0.8-1.7,1.8-3.2,3.1-4.4c1.3-1.2,2.8-2.1,4.6-2.8
		c1.8-0.7,3.6-1,5.6-1c1.8,0,3.5,0.3,5,1c1.5,0.6,2.8,1.6,3.9,2.8c1.1,1.2,1.9,2.7,2.5,4.5c0.6,1.8,0.9,3.8,0.9,6.1v1.8H316.9z
		 M330.4,570.3c0-1.9-0.6-3.5-1.8-4.6c-1.2-1.1-2.8-1.7-4.9-1.7c-2,0-3.5,0.6-4.7,1.7c-1.2,1.1-1.9,2.7-2.1,4.6H330.4z"/>
	<path id="XMLID_28_" class="st1" d="M358.3,582.5h-0.2c-1,1.5-2.2,2.6-3.6,3.3c-1.5,0.7-3.1,1-4.8,1c-1.2,0-2.4-0.2-3.5-0.5
		s-2.2-0.8-3.1-1.5c-0.9-0.7-1.6-1.5-2.2-2.5c-0.5-1-0.8-2.1-0.8-3.5c0-1.4,0.3-2.6,0.8-3.7c0.5-1,1.2-1.9,2.1-2.5
		c0.9-0.7,1.9-1.2,3-1.6c1.1-0.4,2.3-0.7,3.5-0.9c1.2-0.2,2.5-0.3,3.7-0.4c1.2-0.1,2.4-0.1,3.5-0.1h1.6V569c0-1.7-0.6-2.9-1.7-3.7
		c-1.1-0.8-2.6-1.2-4.3-1.2c-1.4,0-2.7,0.2-3.9,0.7c-1.2,0.5-2.3,1.2-3.1,2l-3.5-3.5c1.5-1.5,3.2-2.6,5.1-3.2c2-0.7,4-1,6.1-1
		c1.9,0,3.4,0.2,4.7,0.6c1.3,0.4,2.3,1,3.2,1.6c0.8,0.7,1.5,1.4,2,2.3c0.5,0.9,0.8,1.7,1,2.6c0.2,0.9,0.3,1.7,0.4,2.6
		c0,0.8,0.1,1.5,0.1,2.2v15.2h-5.9V582.5z M357.9,574.3h-1.4c-0.9,0-1.9,0-3.1,0.1c-1.1,0.1-2.2,0.2-3.2,0.5c-1,0.3-1.9,0.7-2.6,1.2
		c-0.7,0.5-1,1.3-1,2.2c0,0.6,0.1,1.1,0.4,1.6c0.3,0.4,0.6,0.8,1.1,1.1c0.4,0.3,0.9,0.5,1.5,0.6c0.5,0.1,1.1,0.2,1.6,0.2
		c2.3,0,4-0.5,5-1.6c1.1-1.1,1.6-2.6,1.6-4.4V574.3z"/>
	<path id="XMLID_31_" class="st1" d="M370.1,544.5h6.6v41.6h-6.6V544.5z"/>
	<path id="XMLID_33_" class="st1" d="M379.8,565.3v-5.6h5.4v-7.6h6.6v7.6h7.3v5.6h-7.3v11.6c0,1.3,0.2,2.4,0.7,3.1
		c0.5,0.8,1.5,1.2,2.9,1.2c0.6,0,1.2-0.1,1.9-0.2c0.7-0.1,1.2-0.3,1.7-0.6v5.6c-0.7,0.3-1.5,0.6-2.6,0.7c-1,0.1-1.9,0.2-2.7,0.2
		c-1.8,0-3.2-0.2-4.3-0.6c-1.1-0.4-2-1-2.6-1.8c-0.6-0.8-1.1-1.8-1.3-2.9c-0.2-1.2-0.4-2.5-0.4-4.1v-12.1H379.8z"/>
	<path id="XMLID_35_" class="st1" d="M409.6,563.4h0.1c0.5-1.1,1.4-2.1,2.7-3c1.3-0.9,3-1.3,5-1.3c1.8,0,3.3,0.3,4.5,0.9
		c1.2,0.6,2.2,1.4,3,2.3c0.8,1,1.3,2.1,1.7,3.3c0.3,1.2,0.5,2.5,0.5,3.9v16.7h-6.6v-13.4c0-0.7,0-1.5-0.1-2.4
		c-0.1-0.9-0.3-1.7-0.6-2.5c-0.3-0.8-0.8-1.4-1.5-2c-0.7-0.5-1.6-0.8-2.7-0.8c-1.1,0-2,0.2-2.8,0.5c-0.8,0.4-1.4,0.9-1.9,1.5
		c-0.5,0.6-0.9,1.3-1.1,2.1c-0.2,0.8-0.3,1.7-0.3,2.5v14.4H403v-41.6h6.6V563.4z"/>
	<path id="XMLID_37_" class="st1" d="M429.6,559.7h7.3l7.4,18.3h0.1l6.6-18.3h6.9l-12.5,32.1c-0.5,1.2-1,2.3-1.6,3.3
		c-0.6,0.9-1.2,1.7-2,2.4s-1.7,1.1-2.7,1.4c-1,0.3-2.3,0.5-3.8,0.5c-1.7,0-3.4-0.2-5.1-0.7l0.8-5.9c0.5,0.2,1.1,0.3,1.6,0.5
		c0.6,0.1,1.1,0.2,1.7,0.2c0.8,0,1.5-0.1,2-0.2c0.6-0.1,1-0.4,1.4-0.7c0.4-0.3,0.7-0.7,1-1.2c0.3-0.5,0.5-1.1,0.8-1.8l1.3-3.1
		L429.6,559.7z"/>
	<path id="XMLID_39_" class="st1" d="M502.5,559.7v24c0,2.4-0.3,4.5-0.9,6.5c-0.6,1.9-1.5,3.6-2.7,4.9c-1.2,1.3-2.8,2.4-4.6,3.1
		c-1.9,0.7-4.1,1.1-6.7,1.1c-2.5,0-4.8-0.3-7-0.9c-2.2-0.6-4.2-1.8-6.1-3.4l4-5.4c1.3,1.2,2.7,2.1,4.1,2.8s3.1,1,5,1
		c1.6,0,2.9-0.2,4-0.7c1.1-0.4,1.9-1,2.6-1.8c0.6-0.8,1.1-1.7,1.4-2.8c0.3-1.1,0.4-2.3,0.4-3.6v-1.9h-0.1c-1,1.3-2.2,2.2-3.8,2.9
		c-1.6,0.6-3.2,1-4.8,1c-2,0-3.8-0.4-5.4-1.1c-1.6-0.7-3-1.7-4.2-2.9c-1.2-1.2-2-2.6-2.7-4.3c-0.6-1.7-0.9-3.4-0.9-5.3
		c0-1.9,0.3-3.8,0.9-5.4c0.6-1.7,1.4-3.2,2.6-4.4c1.1-1.2,2.5-2.2,4.1-2.9s3.4-1.1,5.5-1.1c1.9,0,3.6,0.4,5.2,1.1
		c1.6,0.7,2.9,1.9,3.9,3.5h0.1v-4H502.5z M488.4,565c-1.2,0-2.2,0.2-3.2,0.6c-1,0.4-1.8,0.9-2.4,1.6c-0.7,0.7-1.2,1.5-1.6,2.5
		c-0.4,1-0.6,2-0.6,3.2c0,1.1,0.2,2.1,0.6,3c0.4,0.9,0.9,1.7,1.6,2.4c0.7,0.7,1.5,1.2,2.5,1.7c1,0.4,2,0.6,3.1,0.6
		c1.2,0,2.3-0.2,3.3-0.6c1-0.4,1.8-0.9,2.5-1.6c0.7-0.7,1.2-1.5,1.6-2.4c0.4-1,0.6-2,0.6-3.1c0-2.3-0.7-4.2-2.1-5.6
		C492.7,565.7,490.8,565,488.4,565z"/>
	<path id="XMLID_42_" class="st1" d="M513.8,575.2c0.2,2,1,3.5,2.3,4.6c1.3,1.1,2.9,1.6,4.8,1.6c1.7,0,3-0.3,4.2-1
		c1.1-0.7,2.1-1.5,2.9-2.6l4.7,3.6c-1.5,1.9-3.3,3.3-5.2,4.1c-1.9,0.8-3.9,1.2-6,1.2c-2,0-3.9-0.3-5.6-1s-3.3-1.6-4.6-2.8
		c-1.3-1.2-2.3-2.7-3.1-4.4c-0.8-1.7-1.1-3.6-1.1-5.7c0-2.1,0.4-4,1.1-5.7c0.8-1.7,1.8-3.2,3.1-4.4c1.3-1.2,2.8-2.1,4.6-2.8
		c1.8-0.7,3.6-1,5.6-1c1.8,0,3.5,0.3,5,1c1.5,0.6,2.8,1.6,3.9,2.8s1.9,2.7,2.5,4.5c0.6,1.8,0.9,3.8,0.9,6.1v1.8H513.8z M527.4,570.3
		c0-1.9-0.6-3.5-1.8-4.6c-1.2-1.1-2.8-1.7-4.9-1.7c-2,0-3.5,0.6-4.7,1.7c-1.2,1.1-1.9,2.7-2.1,4.6H527.4z"/>
	<path id="XMLID_45_" class="st1" d="M535.7,565.3v-5.6h5.4v-7.6h6.6v7.6h7.3v5.6h-7.3v11.6c0,1.3,0.2,2.4,0.7,3.1
		c0.5,0.8,1.5,1.2,2.9,1.2c0.6,0,1.2-0.1,1.9-0.2c0.7-0.1,1.2-0.3,1.7-0.6v5.6c-0.7,0.3-1.5,0.6-2.6,0.7c-1,0.1-1.9,0.2-2.7,0.2
		c-1.8,0-3.2-0.2-4.3-0.6c-1.1-0.4-2-1-2.6-1.8c-0.6-0.8-1.1-1.8-1.3-2.9c-0.2-1.2-0.4-2.5-0.4-4.1v-12.1H535.7z"/>
	<path id="XMLID_47_" class="st1" d="M555.8,565.3v-5.6h5.4v-7.6h6.6v7.6h7.3v5.6h-7.3v11.6c0,1.3,0.2,2.4,0.7,3.1
		c0.5,0.8,1.5,1.2,2.9,1.2c0.6,0,1.2-0.1,1.9-0.2c0.7-0.1,1.2-0.3,1.7-0.6v5.6c-0.7,0.3-1.5,0.6-2.6,0.7c-1,0.1-1.9,0.2-2.7,0.2
		c-1.8,0-3.2-0.2-4.3-0.6c-1.1-0.4-2-1-2.6-1.8c-0.6-0.8-1.1-1.8-1.3-2.9c-0.2-1.2-0.4-2.5-0.4-4.1v-12.1H555.8z"/>
	<path id="XMLID_49_" class="st1" d="M578.1,550.8c0-1.1,0.4-2,1.2-2.8s1.8-1.2,3-1.2c1.2,0,2.2,0.4,3.1,1.1
		c0.8,0.8,1.2,1.7,1.2,2.8c0,1.1-0.4,2.1-1.2,2.8c-0.8,0.8-1.8,1.1-3.1,1.1c-1.2,0-2.2-0.4-3-1.2
		C578.5,552.7,578.1,551.8,578.1,550.8z M579,559.7h6.6v26.4H579V559.7z"/>
	<path id="XMLID_52_" class="st1" d="M591.8,559.7h6.3v4.2h0.1c0.6-1.3,1.6-2.5,2.9-3.4c1.3-1,3-1.5,5.2-1.5c1.8,0,3.3,0.3,4.5,0.9
		c1.2,0.6,2.2,1.4,3,2.3c0.8,1,1.3,2.1,1.7,3.3c0.3,1.2,0.5,2.5,0.5,3.9v16.7h-6.6v-13.4c0-0.7,0-1.5-0.1-2.4
		c-0.1-0.9-0.3-1.7-0.6-2.5c-0.3-0.8-0.8-1.4-1.5-2c-0.7-0.5-1.6-0.8-2.7-0.8c-1.1,0-2,0.2-2.8,0.5c-0.8,0.4-1.4,0.9-1.9,1.5
		c-0.5,0.6-0.9,1.3-1.1,2.1c-0.2,0.8-0.3,1.7-0.3,2.5v14.4h-6.6V559.7z"/>
	<path id="XMLID_54_" class="st1" d="M649.2,559.7v24c0,2.4-0.3,4.5-0.9,6.5c-0.6,1.9-1.5,3.6-2.7,4.9c-1.2,1.3-2.8,2.4-4.6,3.1
		s-4.1,1.1-6.7,1.1c-2.5,0-4.8-0.3-7-0.9c-2.2-0.6-4.2-1.8-6.1-3.4l4-5.4c1.3,1.2,2.7,2.1,4.1,2.8c1.4,0.7,3.1,1,5,1
		c1.6,0,2.9-0.2,4-0.7c1.1-0.4,1.9-1,2.6-1.8c0.6-0.8,1.1-1.7,1.4-2.8c0.3-1.1,0.4-2.3,0.4-3.6v-1.9h-0.1c-1,1.3-2.2,2.2-3.8,2.9
		c-1.6,0.6-3.2,1-4.8,1c-2,0-3.8-0.4-5.4-1.1c-1.6-0.7-3-1.7-4.2-2.9c-1.2-1.2-2-2.6-2.7-4.3c-0.6-1.7-0.9-3.4-0.9-5.3
		c0-1.9,0.3-3.8,0.9-5.4c0.6-1.7,1.4-3.2,2.6-4.4s2.5-2.2,4.1-2.9c1.6-0.7,3.4-1.1,5.5-1.1c1.9,0,3.6,0.4,5.2,1.1
		c1.6,0.7,2.9,1.9,3.9,3.5h0.1v-4H649.2z M635.1,565c-1.2,0-2.2,0.2-3.2,0.6c-1,0.4-1.8,0.9-2.4,1.6c-0.7,0.7-1.2,1.5-1.6,2.5
		c-0.4,1-0.6,2-0.6,3.2c0,1.1,0.2,2.1,0.6,3c0.4,0.9,0.9,1.7,1.6,2.4c0.7,0.7,1.5,1.2,2.5,1.7c1,0.4,2,0.6,3.1,0.6
		c1.2,0,2.3-0.2,3.3-0.6c1-0.4,1.8-0.9,2.5-1.6c0.7-0.7,1.2-1.5,1.6-2.4c0.4-1,0.5-2,0.5-3.1c0-2.3-0.7-4.2-2.1-5.6
		C639.5,565.7,637.5,565,635.1,565z"/>
	<path id="XMLID_57_" class="st1" d="M676.8,563.4h0.1c0.5-1.1,1.4-2.1,2.7-3c1.3-0.9,3-1.3,5-1.3c1.8,0,3.3,0.3,4.5,0.9
		c1.2,0.6,2.2,1.4,3,2.3c0.8,1,1.3,2.1,1.7,3.3c0.3,1.2,0.5,2.5,0.5,3.9v16.7h-6.6v-13.4c0-0.7,0-1.5-0.1-2.4
		c-0.1-0.9-0.3-1.7-0.6-2.5c-0.3-0.8-0.8-1.4-1.5-2c-0.7-0.5-1.6-0.8-2.7-0.8c-1.1,0-2,0.2-2.8,0.5c-0.8,0.4-1.4,0.9-1.9,1.5
		c-0.5,0.6-0.9,1.3-1.1,2.1c-0.2,0.8-0.3,1.7-0.3,2.5v14.4h-6.6v-41.6h6.6V563.4z"/>
	<path id="XMLID_59_" class="st1" d="M705.7,575.2c0.2,2,1,3.5,2.3,4.6c1.3,1.1,2.9,1.6,4.8,1.6c1.7,0,3-0.3,4.2-1
		c1.1-0.7,2.1-1.5,2.9-2.6l4.7,3.6c-1.5,1.9-3.3,3.3-5.2,4.1c-1.9,0.8-3.9,1.2-6,1.2c-2,0-3.9-0.3-5.6-1c-1.8-0.7-3.3-1.6-4.6-2.8
		c-1.3-1.2-2.3-2.7-3.1-4.4c-0.8-1.7-1.1-3.6-1.1-5.7c0-2.1,0.4-4,1.1-5.7c0.8-1.7,1.8-3.2,3.1-4.4c1.3-1.2,2.8-2.1,4.6-2.8
		c1.8-0.7,3.6-1,5.6-1c1.8,0,3.5,0.3,5,1c1.5,0.6,2.8,1.6,3.9,2.8s1.9,2.7,2.5,4.5c0.6,1.8,0.9,3.8,0.9,6.1v1.8H705.7z M719.2,570.3
		c0-1.9-0.6-3.5-1.8-4.6c-1.2-1.1-2.8-1.7-4.9-1.7c-2,0-3.5,0.6-4.7,1.7c-1.2,1.1-1.9,2.7-2.1,4.6H719.2z"/>
	<path id="XMLID_62_" class="st1" d="M747.1,582.5H747c-1,1.5-2.2,2.6-3.6,3.3c-1.5,0.7-3.1,1-4.8,1c-1.2,0-2.4-0.2-3.5-0.5
		s-2.2-0.8-3.1-1.5c-0.9-0.7-1.6-1.5-2.2-2.5c-0.6-1-0.8-2.1-0.8-3.5c0-1.4,0.3-2.6,0.8-3.7c0.5-1,1.2-1.9,2.1-2.5
		c0.9-0.7,1.9-1.2,3-1.6c1.1-0.4,2.3-0.7,3.5-0.9c1.2-0.2,2.5-0.3,3.7-0.4c1.2-0.1,2.4-0.1,3.5-0.1h1.7V569c0-1.7-0.6-2.9-1.7-3.7
		c-1.1-0.8-2.6-1.2-4.3-1.2c-1.4,0-2.7,0.2-3.9,0.7c-1.2,0.5-2.3,1.2-3.1,2l-3.5-3.5c1.5-1.5,3.2-2.6,5.1-3.2c2-0.7,4-1,6.1-1
		c1.9,0,3.4,0.2,4.7,0.6c1.3,0.4,2.3,1,3.2,1.6s1.5,1.4,2,2.3c0.5,0.9,0.8,1.7,1,2.6c0.2,0.9,0.3,1.7,0.4,2.6c0,0.8,0.1,1.5,0.1,2.2
		v15.2h-5.9V582.5z M746.7,574.3h-1.4c-0.9,0-1.9,0-3.1,0.1c-1.1,0.1-2.2,0.2-3.2,0.5c-1,0.3-1.9,0.7-2.6,1.2c-0.7,0.5-1,1.3-1,2.2
		c0,0.6,0.1,1.1,0.4,1.6c0.3,0.4,0.6,0.8,1.1,1.1c0.4,0.3,0.9,0.5,1.5,0.6c0.5,0.1,1.1,0.2,1.7,0.2c2.3,0,4-0.5,5-1.6
		c1.1-1.1,1.6-2.6,1.6-4.4V574.3z"/>
	<path id="XMLID_65_" class="st1" d="M758.9,544.5h6.6v41.6h-6.6V544.5z"/>
	<path id="XMLID_67_" class="st1" d="M768.7,565.3v-5.6h5.4v-7.6h6.6v7.6h7.3v5.6h-7.3v11.6c0,1.3,0.2,2.4,0.7,3.1
		c0.5,0.8,1.5,1.2,2.9,1.2c0.6,0,1.2-0.1,1.9-0.2c0.7-0.1,1.2-0.3,1.7-0.6v5.6c-0.7,0.3-1.5,0.6-2.6,0.7c-1,0.1-1.9,0.2-2.7,0.2
		c-1.8,0-3.2-0.2-4.3-0.6c-1.1-0.4-2-1-2.6-1.8c-0.6-0.8-1.1-1.8-1.3-2.9c-0.2-1.2-0.4-2.5-0.4-4.1v-12.1H768.7z"/>
	<path id="XMLID_69_" class="st1" d="M798.4,563.4h0.1c0.5-1.1,1.4-2.1,2.7-3c1.3-0.9,3-1.3,5-1.3c1.8,0,3.3,0.3,4.5,0.9
		c1.2,0.6,2.2,1.4,3,2.3c0.8,1,1.3,2.1,1.7,3.3c0.3,1.2,0.5,2.5,0.5,3.9v16.7h-6.6v-13.4c0-0.7,0-1.5-0.1-2.4
		c-0.1-0.9-0.3-1.7-0.6-2.5c-0.3-0.8-0.8-1.4-1.5-2c-0.7-0.5-1.6-0.8-2.7-0.8c-1.1,0-2,0.2-2.8,0.5c-0.8,0.4-1.4,0.9-1.9,1.5
		c-0.5,0.6-0.9,1.3-1.1,2.1c-0.2,0.8-0.3,1.7-0.3,2.5v14.4h-6.6v-41.6h6.6V563.4z"/>
	<path id="XMLID_71_" class="st1" d="M818.5,559.7h7.3l7.4,18.3h0.1l6.6-18.3h6.9l-12.5,32.1c-0.5,1.2-1,2.3-1.6,3.3
		c-0.6,0.9-1.2,1.7-2,2.4c-0.8,0.6-1.7,1.1-2.7,1.4c-1,0.3-2.3,0.5-3.8,0.5c-1.7,0-3.4-0.2-5.1-0.7l0.8-5.9c0.5,0.2,1.1,0.3,1.6,0.5
		c0.6,0.1,1.1,0.2,1.7,0.2c0.8,0,1.5-0.1,2-0.2c0.5-0.1,1-0.4,1.4-0.7c0.4-0.3,0.7-0.7,1-1.2c0.3-0.5,0.5-1.1,0.8-1.8l1.3-3.1
		L818.5,559.7z"/>
</g>
<g>
	<path class="st2" d="M524.5,282.9c-30.1,0-54.6-24.5-54.6-54.6v-54.5c0-9.5,7.7-17.3,17.3-17.3h15.9c4,0,7.2,3.2,7.2,7.2
		c0,4-3.2,7.2-7.2,7.2h-15.9c-1.6,0-2.9,1.3-2.9,2.9v54.5c0,22.2,18,40.2,40.2,40.2c22.2,0,40.2-18,40.2-40.2v-54.5
		c0-1.6-1.3-2.9-2.9-2.9H546c-4,0-7.2-3.2-7.2-7.2c0-4,3.2-7.2,7.2-7.2h15.9c9.5,0,17.3,7.7,17.3,17.3v54.5
		C579.1,258.4,554.6,282.9,524.5,282.9L524.5,282.9z M524.5,278.2"/>
	<path class="st2" d="M462.8,403.3c-38,0-68.9-30.9-68.9-68.9V327c0-4,3.2-7.2,7.2-7.2c4,0,7.2,3.2,7.2,7.2v7.4
		c0,30.1,24.5,54.5,54.5,54.5c30.1,0,54.5-24.5,54.5-54.5v-31.3c0-4,3.2-7.2,7.2-7.2c4,0,7.2,3.2,7.2,7.2v31.3
		C531.7,372.4,500.8,403.3,462.8,403.3L462.8,403.3z M462.8,403.3"/>
	<path class="st0" d="M401.1,301.9c-28.4,0-51.4-23.1-51.4-51.4c0-28.4,23.1-51.4,51.4-51.4c28.4,0,51.4,23.1,51.4,51.4
		C452.5,278.9,429.4,301.9,401.1,301.9L401.1,301.9z M401.1,213.5c-20.4,0-37,16.6-37,37c0,20.4,16.6,37,37,37c20.4,0,37-16.6,37-37
		C438.1,230.1,421.5,213.5,401.1,213.5L401.1,213.5z M401.1,213.5"/>
	<path class="st0" d="M393,250.5c0-4.5,3.6-8.1,8.1-8.1c4.5,0,8.1,3.6,8.1,8.1c0,4.5-3.6,8.1-8.1,8.1C396.6,258.6,393,255,393,250.5
		L393,250.5z M393,250.5"/>
	<path class="st0" d="M401.1,265.8c-8.4,0-15.3-6.8-15.3-15.3c0-8.4,6.8-15.3,15.3-15.3c8.4,0,15.3,6.8,15.3,15.3
		C416.4,258.9,409.5,265.8,401.1,265.8L401.1,265.8z M401.1,249.7c-0.5,0-0.9,0.4-0.9,0.9c0,0.5,0.4,0.9,0.9,0.9
		c0.5,0,0.9-0.4,0.9-0.9C402,250.1,401.6,249.7,401.1,249.7L401.1,249.7z M401.1,249.7"/>
</g>
</svg>
