<?xml version="1.0" encoding="utf-8"?>
<!-- Generator: Adobe Illustrator 19.0.0, SVG Export Plug-In . SVG Version: 6.00 Build 0)  -->
<svg version="1.1" id="Layer_1" xmlns="http://www.w3.org/2000/svg" xmlns:xlink="http://www.w3.org/1999/xlink" x="0px" y="0px"
	 viewBox="0 0 1024 768" style="enable-background:new 0 0 1024 768;" xml:space="preserve">
<style type="text/css">
	.st0{fill:#0BC0AA;}
	.st1{fill:#7C5FC4;}
</style>
<g id="XMLID_73_">
	<path id="XMLID_74_" class="st0" d="M224.7,351.6h11.8v99.1h-11.8V351.6z"/>
	<path id="XMLID_76_" class="st0" d="M255.7,400.8c0-3-0.1-5.8-0.3-8.4c-0.2-2.6-0.3-5-0.3-7.1h10.4c0,1.8,0,3.5,0.1,5.3
		c0.1,1.8,0.1,3.6,0.1,5.5h0.3c0.7-1.6,1.8-3.1,3.1-4.6c1.4-1.5,3-2.8,4.8-4c1.9-1.2,4-2.1,6.3-2.8c2.3-0.7,4.9-1,7.6-1
		c4.3,0,8,0.7,11.1,2c3.1,1.3,5.7,3.1,7.8,5.5c2.1,2.3,3.6,5.2,4.5,8.5c1,3.3,1.5,6.9,1.5,10.8v40.5h-10.9v-39.3
		c0-5.5-1.2-9.8-3.6-13c-2.4-3.2-6.2-4.8-11.3-4.8c-3.5,0-6.6,0.6-9.2,1.8c-2.6,1.2-4.7,2.9-6.3,5.2c-1.6,2.2-2.8,4.9-3.6,8
		c-0.8,3.1-1.2,6.5-1.2,10.2v31.9h-10.9V400.8z"/>
	<path id="XMLID_78_" class="st0" d="M376.6,401.6c-2.3-2.8-4.9-4.8-7.6-6.1c-2.7-1.3-5.7-1.9-9-1.9c-3.6,0-6.9,0.6-9.7,1.9
		c-2.8,1.3-5.1,3-6.9,5.2c-1.8,2.2-3.2,4.8-4.1,7.8c-0.9,2.9-1.4,6.1-1.4,9.4c0,3.4,0.5,6.5,1.6,9.4c1.1,2.9,2.6,5.5,4.5,7.8
		c1.9,2.2,4.2,4,6.9,5.2c2.7,1.3,5.7,1.9,9.1,1.9c7.2,0,12.7-2.7,16.7-8.1l8.1,7.7c-3.2,3.6-6.9,6.3-11.2,8
		c-4.3,1.7-8.8,2.5-13.6,2.5c-5,0-9.7-0.8-13.9-2.5s-7.8-4.1-10.7-7.1c-2.9-3.1-5.2-6.7-6.9-10.9c-1.6-4.2-2.4-8.8-2.4-13.9
		c0-4.9,0.8-9.5,2.4-13.7c1.6-4.2,3.9-7.8,6.9-10.9c3-3.1,6.6-5.5,10.7-7.2c4.2-1.7,8.7-2.6,13.8-2.6c4.9,0,9.4,0.8,13.8,2.5
		c4.3,1.7,8.1,4.3,11.4,7.8L376.6,401.6z"/>
	<path id="XMLID_80_" class="st0" d="M452.5,438.9c-3.9,5-8.2,8.6-12.9,10.6c-4.7,2-10.1,3-16.2,3c-5.1,0-9.8-0.9-13.9-2.7
		c-4.1-1.8-7.6-4.3-10.4-7.3c-2.8-3.1-5-6.7-6.6-10.9c-1.5-4.2-2.3-8.7-2.3-13.4c0-5,0.8-9.7,2.5-13.9c1.7-4.2,4-7.9,7-10.9
		c3-3,6.5-5.4,10.6-7.1c4.1-1.7,8.6-2.5,13.4-2.5c4.6,0,8.8,0.8,12.6,2.3c3.8,1.5,7.1,3.8,9.9,6.7c2.8,2.9,4.9,6.5,6.4,10.8
		c1.5,4.2,2.2,9.1,2.2,14.5v3.5H402c0.2,2.8,0.9,5.5,2,8c1.2,2.6,2.7,4.8,4.5,6.7c1.9,1.9,4.1,3.4,6.6,4.5c2.5,1.1,5.3,1.7,8.3,1.7
		c4.8,0,8.8-0.8,12-2.5c3.3-1.7,6.2-4.2,8.8-7.4L452.5,438.9z M443.1,412.1c-0.2-5.6-2-10.1-5.5-13.4c-3.5-3.4-8.2-5-14.3-5
		c-6.1,0-11,1.7-14.7,5c-3.7,3.4-6,7.8-6.7,13.4H443.1z"/>
	<path id="XMLID_83_" class="st0" d="M468.3,400.8c0-3-0.1-5.8-0.3-8.4c-0.2-2.6-0.3-5-0.3-7.1h10.4c0,1.8,0,3.5,0.1,5.3
		c0.1,1.8,0.1,3.6,0.1,5.5h0.3c0.7-1.6,1.8-3.1,3.1-4.6c1.4-1.5,3-2.8,4.8-4c1.9-1.2,4-2.1,6.3-2.8c2.3-0.7,4.9-1,7.6-1
		c4.3,0,8,0.7,11.1,2c3.1,1.3,5.7,3.1,7.8,5.5c2.1,2.3,3.6,5.2,4.5,8.5c1,3.3,1.5,6.9,1.5,10.8v40.5h-10.9v-39.3
		c0-5.5-1.2-9.8-3.6-13c-2.4-3.2-6.2-4.8-11.3-4.8c-3.5,0-6.6,0.6-9.2,1.8c-2.6,1.2-4.7,2.9-6.3,5.2c-1.6,2.2-2.8,4.9-3.6,8
		c-0.8,3.1-1.2,6.5-1.2,10.2v31.9h-10.9V400.8z"/>
	<path id="XMLID_85_" class="st0" d="M578.5,394.5h-19.3v32.8c0,2.1,0,4.1,0.1,6c0.1,1.8,0.5,3.4,1.1,4.8c0.7,1.4,1.6,2.4,2.9,3.2
		c1.3,0.8,3.2,1.2,5.6,1.2c1.6,0,3.2-0.2,4.9-0.6c1.7-0.4,3.3-0.9,4.8-1.7l0.4,9.9c-1.9,0.8-3.9,1.4-6.2,1.8
		c-2.3,0.4-4.5,0.6-6.5,0.6c-3.9,0-7-0.5-9.4-1.5c-2.3-1-4.2-2.5-5.5-4.3c-1.3-1.9-2.2-4.2-2.6-6.9c-0.4-2.8-0.6-5.8-0.6-9.2v-36
		H534v-9.2h14.3v-18.6h10.9v18.6h19.3V394.5z"/>
	<path id="XMLID_87_" class="st0" d="M590.4,351.6h11.8v42H655v-42h11.8v99.1H655v-46.2h-52.9v46.2h-11.8V351.6z"/>
	<path id="XMLID_89_" class="st0" d="M744.5,438.9c-3.9,5-8.2,8.6-12.9,10.6c-4.7,2-10.1,3-16.2,3c-5.1,0-9.8-0.9-13.9-2.7
		c-4.1-1.8-7.6-4.3-10.4-7.3c-2.8-3.1-5-6.7-6.6-10.9c-1.5-4.2-2.3-8.7-2.3-13.4c0-5,0.8-9.7,2.5-13.9c1.7-4.2,4-7.9,7-10.9
		c3-3,6.5-5.4,10.6-7.1c4.1-1.7,8.6-2.5,13.4-2.5c4.6,0,8.8,0.8,12.6,2.3c3.8,1.5,7.1,3.8,9.9,6.7c2.8,2.9,4.9,6.5,6.4,10.8
		c1.5,4.2,2.2,9.1,2.2,14.5v3.5h-52.9c0.2,2.8,0.9,5.5,2,8c1.2,2.6,2.7,4.8,4.5,6.7c1.9,1.9,4.1,3.4,6.6,4.5
		c2.5,1.1,5.3,1.7,8.3,1.7c4.8,0,8.8-0.8,12-2.5c3.3-1.7,6.2-4.2,8.8-7.4L744.5,438.9z M735.1,412.1c-0.2-5.6-2-10.1-5.5-13.4
		c-3.5-3.4-8.2-5-14.3-5c-6.1,0-11,1.7-14.7,5c-3.7,3.4-6,7.8-6.7,13.4H735.1z"/>
	<path id="XMLID_92_" class="st0" d="M759.4,393.6c3.4-3.5,7.3-6,12-7.6c4.6-1.6,9.3-2.4,14.1-2.4c9.7,0,16.7,2.3,21,6.9
		c4.3,4.6,6.4,11.5,6.4,20.9v28.1c0,1.9,0.1,3.8,0.3,5.8c0.2,2,0.4,3.8,0.7,5.5h-10.5c-0.4-1.5-0.6-3.1-0.6-5c0-1.8-0.1-3.4-0.1-4.8
		h-0.3c-2.1,3.4-5,6.1-8.6,8.3c-3.6,2.1-7.9,3.2-12.9,3.2c-3.4,0-6.5-0.4-9.4-1.3c-2.9-0.8-5.5-2.1-7.7-3.7
		c-2.2-1.6-3.9-3.7-5.2-6.1c-1.3-2.4-2-5.2-2-8.4c0-5.4,1.4-9.7,4.2-12.7c2.8-3.1,6.3-5.4,10.4-6.9c4.2-1.5,8.6-2.4,13.4-2.8
		c4.8-0.4,9.2-0.6,13.2-0.6h4.2v-2c0-4.8-1.4-8.3-4.3-10.8c-2.8-2.4-6.8-3.6-12-3.6c-3.5,0-7,0.6-10.4,1.8c-3.4,1.2-6.4,3-9,5.4
		L759.4,393.6z M791.1,419.3c-7,0-12.6,1-16.7,2.9c-4.1,2-6.2,5.2-6.2,9.7c0,4.1,1.4,7,4.1,8.7c2.8,1.7,6.2,2.6,10.3,2.6
		c3.2,0,5.9-0.5,8.3-1.6c2.4-1.1,4.4-2.5,5.9-4.3c1.6-1.8,2.8-3.8,3.6-6.2c0.8-2.4,1.3-4.9,1.4-7.6v-4.2H791.1z"/>
	<path id="XMLID_95_" class="st0" d="M830.4,344.9h10.9v105.8h-10.9V344.9z"/>
	<path id="XMLID_97_" class="st0" d="M895.5,394.5h-19.3v32.8c0,2.1,0,4.1,0.1,6c0.1,1.8,0.5,3.4,1.1,4.8c0.7,1.4,1.6,2.4,2.9,3.2
		c1.3,0.8,3.2,1.2,5.6,1.2c1.6,0,3.2-0.2,4.9-0.6c1.7-0.4,3.3-0.9,4.8-1.7l0.4,9.9c-1.9,0.8-3.9,1.4-6.2,1.8
		c-2.3,0.4-4.5,0.6-6.5,0.6c-3.9,0-7-0.5-9.4-1.5c-2.3-1-4.2-2.5-5.5-4.3c-1.3-1.9-2.2-4.2-2.6-6.9c-0.4-2.8-0.6-5.8-0.6-9.2v-36
		H851v-9.2h14.3v-18.6h10.9v18.6h19.3V394.5z"/>
	<path id="XMLID_99_" class="st0" d="M905.6,344.9h10.9v49.4h0.3c0.7-1.3,1.8-2.6,3.1-3.8c1.3-1.3,2.9-2.4,4.7-3.4
		c1.8-1,3.8-1.9,6.1-2.5c2.2-0.7,4.6-1,7.1-1c4.3,0,8,0.7,11.1,2c3.1,1.3,5.7,3.1,7.8,5.5c2.1,2.3,3.6,5.2,4.5,8.5
		c1,3.3,1.5,6.9,1.5,10.8v40.5h-10.9v-39.3c0-5.5-1.2-9.8-3.6-13c-2.4-3.2-6.2-4.8-11.3-4.8c-3.5,0-6.6,0.6-9.2,1.8
		c-2.6,1.2-4.7,2.9-6.3,5.2c-1.6,2.2-2.8,4.9-3.6,8c-0.8,3.1-1.2,6.5-1.2,10.2v31.9h-10.9V344.9z"/>
</g>
<g id="XMLID_14_">
	<path id="XMLID_29_" class="st1" d="M167.5,383.2c-19.6,0-35.5-15.9-35.5-35.5v-35.4c0-6.2,5-11.2,11.2-11.2h10.3
		c2.6,0,4.7,2.1,4.7,4.7c0,2.6-2.1,4.7-4.7,4.7h-10.3c-1,0-1.9,0.8-1.9,1.9v35.4c0,14.4,11.7,26.1,26.1,26.1s26.1-11.7,26.1-26.1
		v-35.4c0-1-0.8-1.9-1.9-1.9h-10.3c-2.6,0-4.7-2.1-4.7-4.7c0-2.6,2.1-4.7,4.7-4.7h10.3c6.2,0,11.2,5,11.2,11.2v35.4
		C202.9,367.3,187,383.2,167.5,383.2L167.5,383.2z M167.5,380.2"/>
	<path id="XMLID_26_" class="st1" d="M127.4,461.4c-24.7,0-44.8-20.1-44.8-44.8v-4.8c0-2.6,2.1-4.7,4.7-4.7c2.6,0,4.7,2.1,4.7,4.7
		v4.8c0,19.5,15.9,35.4,35.4,35.4c19.5,0,35.4-15.9,35.4-35.4v-20.3c0-2.6,2.1-4.7,4.7-4.7c2.6,0,4.7,2.1,4.7,4.7v20.3
		C172.2,441.3,152.1,461.4,127.4,461.4L127.4,461.4z M127.4,461.4"/>
	<path id="XMLID_22_" class="st0" d="M87.3,395.6c-18.4,0-33.4-15-33.4-33.4c0-18.4,15-33.4,33.4-33.4c18.4,0,33.4,15,33.4,33.4
		C120.7,380.6,105.7,395.6,87.3,395.6L87.3,395.6z M87.3,338.1c-13.3,0-24,10.8-24,24c0,13.3,10.8,24,24,24c13.3,0,24-10.8,24-24
		C111.3,348.9,100.6,338.1,87.3,338.1L87.3,338.1z M87.3,338.1"/>
	<path id="XMLID_19_" class="st0" d="M82.1,362.2c0-2.9,2.3-5.2,5.2-5.2c2.9,0,5.2,2.3,5.2,5.2c0,2.9-2.3,5.2-5.2,5.2
		C84.4,367.4,82.1,365.1,82.1,362.2L82.1,362.2z M82.1,362.2"/>
	<path id="XMLID_15_" class="st0" d="M87.3,372.1c-5.5,0-9.9-4.4-9.9-9.9c0-5.5,4.4-9.9,9.9-9.9c5.5,0,9.9,4.4,9.9,9.9
		C97.2,367.6,92.8,372.1,87.3,372.1L87.3,372.1z M87.3,361.6c-0.3,0-0.6,0.3-0.6,0.6c0,0.3,0.2,0.6,0.6,0.6c0.3,0,0.6-0.2,0.6-0.6
		C87.9,361.9,87.6,361.6,87.3,361.6L87.3,361.6z M87.3,361.6"/>
</g>
</svg>
