<?xml version="1.0" encoding="utf-8"?>
<!-- Generator: Adobe Illustrator 19.0.0, SVG Export Plug-In . SVG Version: 6.00 Build 0)  -->
<svg version="1.1" id="Layer_1" xmlns="http://www.w3.org/2000/svg" xmlns:xlink="http://www.w3.org/1999/xlink" x="0px" y="0px"
	 viewBox="0 0 1024 768" style="enable-background:new 0 0 1024 768;" xml:space="preserve">
<style type="text/css">
	.st0{fill:#0BC0AA;}
</style>
<g id="XMLID_73_">
	<path id="XMLID_74_" class="st0" d="M55.2,299.1h14.8v124.3H55.2V299.1z"/>
	<path id="XMLID_76_" class="st0" d="M94,360.7c0-3.7-0.1-7.3-0.4-10.5c-0.2-3.3-0.4-6.3-0.4-9h13c0,2.2,0.1,4.5,0.2,6.7
		c0.1,2.2,0.2,4.5,0.2,6.8h0.4c0.9-2,2.3-3.9,4-5.8c1.7-1.9,3.7-3.5,6.1-5c2.3-1.5,5-2.6,7.9-3.5c2.9-0.9,6.1-1.3,9.5-1.3
		c5.4,0,10,0.8,14,2.5c3.9,1.6,7.2,3.9,9.7,6.8c2.6,2.9,4.5,6.5,5.7,10.6c1.2,4.2,1.8,8.7,1.8,13.6v50.8h-13.7V374
		c0-6.9-1.5-12.4-4.6-16.3c-3-4-7.8-6-14.2-6c-4.5,0-8.3,0.8-11.5,2.3c-3.2,1.5-5.9,3.7-7.9,6.5c-2.1,2.8-3.6,6.1-4.6,10
		c-1,3.9-1.5,8.1-1.5,12.8v40H94V360.7z"/>
	<path id="XMLID_78_" class="st0" d="M245.7,361.7c-2.9-3.5-6.1-6.1-9.5-7.6c-3.4-1.6-7.1-2.4-11.2-2.4c-4.6,0-8.6,0.8-12.1,2.4
		c-3.5,1.6-6.4,3.8-8.7,6.6c-2.3,2.8-4,6.1-5.2,9.7c-1.2,3.7-1.8,7.6-1.8,11.9c0,4.2,0.7,8.2,2,11.9c1.3,3.7,3.2,6.9,5.6,9.7
		c2.4,2.8,5.3,5,8.7,6.6c3.4,1.6,7.2,2.4,11.4,2.4c9,0,16-3.4,20.9-10.2l10.2,9.7c-4,4.6-8.7,7.9-14,10c-5.4,2.1-11.1,3.2-17,3.2
		c-6.3,0-12.1-1.1-17.4-3.2c-5.3-2.1-9.7-5.1-13.4-9c-3.7-3.9-6.6-8.4-8.6-13.7c-2.1-5.3-3.1-11.1-3.1-17.4c0-6.2,1-11.9,3.1-17.2
		c2-5.3,4.9-9.8,8.7-13.7c3.7-3.9,8.2-6.9,13.4-9c5.2-2.2,11-3.2,17.3-3.2c6.1,0,11.9,1.1,17.3,3.2c5.4,2.1,10.2,5.4,14.3,9.8
		L245.7,361.7z"/>
	<path id="XMLID_80_" class="st0" d="M340.9,408.5c-4.9,6.3-10.3,10.7-16.2,13.3c-5.9,2.5-12.6,3.8-20.4,3.8
		c-6.4,0-12.2-1.1-17.4-3.4c-5.2-2.3-9.5-5.4-13.1-9.2c-3.6-3.9-6.3-8.4-8.3-13.7c-1.9-5.3-2.9-10.9-2.9-16.9
		c0-6.3,1.1-12.1,3.2-17.5c2.1-5.3,5-9.9,8.8-13.7c3.7-3.8,8.2-6.8,13.3-8.9c5.1-2.1,10.8-3.2,16.9-3.2c5.7,0,11,1,15.8,2.9
		c4.8,1.9,8.9,4.7,12.4,8.4c3.5,3.7,6.1,8.2,8,13.5c1.9,5.3,2.8,11.4,2.8,18.2v4.4h-66.4c0.2,3.5,1.1,6.9,2.5,10.1
		c1.5,3.2,3.4,6,5.7,8.4c2.3,2.4,5.1,4.3,8.3,5.7c3.2,1.4,6.6,2.1,10.4,2.1c6,0,11-1.1,15.1-3.2c4.1-2.1,7.8-5.2,11.1-9.3
		L340.9,408.5z M329.1,374.9c-0.2-7-2.5-12.6-6.8-16.9c-4.3-4.2-10.3-6.3-17.9-6.3c-7.6,0-13.8,2.1-18.4,6.3
		c-4.7,4.2-7.5,9.8-8.4,16.9H329.1z"/>
	<path id="XMLID_83_" class="st0" d="M360.7,360.7c0-3.7-0.1-7.3-0.4-10.5c-0.2-3.3-0.4-6.3-0.4-9h13c0,2.2,0.1,4.5,0.2,6.7
		c0.1,2.2,0.2,4.5,0.2,6.8h0.4c0.9-2,2.3-3.9,4-5.8c1.7-1.9,3.7-3.5,6.1-5c2.3-1.5,5-2.6,7.9-3.5c2.9-0.9,6.1-1.3,9.5-1.3
		c5.4,0,10,0.8,14,2.5c3.9,1.6,7.2,3.9,9.7,6.8c2.6,2.9,4.5,6.5,5.7,10.6c1.2,4.2,1.8,8.7,1.8,13.6v50.8h-13.7V374
		c0-6.9-1.5-12.4-4.6-16.3c-3-4-7.8-6-14.2-6c-4.5,0-8.3,0.8-11.5,2.3c-3.2,1.5-5.9,3.7-7.9,6.5c-2.1,2.8-3.6,6.1-4.6,10
		c-1,3.9-1.5,8.1-1.5,12.8v40h-13.7V360.7z"/>
	<path id="XMLID_85_" class="st0" d="M498.9,352.8h-24.2v41.1c0,2.7,0.1,5.2,0.2,7.5c0.1,2.3,0.6,4.3,1.4,6c0.8,1.7,2,3,3.7,4
		c1.6,1,4,1.5,7,1.5c2,0,4-0.2,6.1-0.7c2.1-0.5,4.1-1.2,6-2.1l0.5,12.5c-2.3,1.1-4.9,1.8-7.8,2.3c-2.9,0.5-5.6,0.7-8.2,0.7
		c-4.9,0-8.8-0.6-11.8-1.9c-2.9-1.3-5.2-3.1-6.8-5.4c-1.6-2.3-2.7-5.2-3.2-8.7c-0.5-3.5-0.8-7.3-0.8-11.5v-45.1h-17.9v-11.6H461
		v-23.4h13.7v23.4h24.2V352.8z"/>
	<path id="XMLID_87_" class="st0" d="M513.9,299.1h14.8v52.7H595v-52.7h14.8v124.3H595v-58h-66.4v58h-14.8V299.1z"/>
	<path id="XMLID_89_" class="st0" d="M707.2,408.5c-4.9,6.3-10.3,10.7-16.2,13.3c-5.9,2.5-12.6,3.8-20.4,3.8
		c-6.4,0-12.2-1.1-17.4-3.4c-5.2-2.3-9.5-5.4-13.1-9.2c-3.6-3.9-6.3-8.4-8.3-13.7c-1.9-5.3-2.9-10.9-2.9-16.9
		c0-6.3,1.1-12.1,3.2-17.5c2.1-5.3,5-9.9,8.8-13.7c3.7-3.8,8.2-6.8,13.3-8.9c5.2-2.1,10.8-3.2,16.9-3.2c5.7,0,11,1,15.8,2.9
		c4.8,1.9,8.9,4.7,12.4,8.4c3.5,3.7,6.1,8.2,8,13.5c1.9,5.3,2.8,11.4,2.8,18.2v4.4h-66.4c0.2,3.5,1.1,6.9,2.5,10.1
		c1.5,3.2,3.4,6,5.7,8.4c2.3,2.4,5.1,4.3,8.3,5.7c3.2,1.4,6.6,2.1,10.4,2.1c6,0,11-1.1,15.1-3.2c4.1-2.1,7.8-5.2,11.1-9.3
		L707.2,408.5z M695.5,374.9c-0.2-7-2.5-12.6-6.8-16.9c-4.3-4.2-10.3-6.3-17.9-6.3c-7.6,0-13.8,2.1-18.4,6.3
		c-4.7,4.2-7.5,9.8-8.4,16.9H695.5z"/>
	<path id="XMLID_92_" class="st0" d="M726,351.7c4.2-4.3,9.2-7.5,15-9.6c5.8-2,11.7-3.1,17.6-3.1c12.2,0,21,2.9,26.3,8.6
		c5.4,5.7,8.1,14.5,8.1,26.2v35.3c0,2.3,0.1,4.8,0.4,7.3c0.2,2.5,0.5,4.8,0.9,6.9h-13.2c-0.5-1.9-0.7-4-0.8-6.2
		c-0.1-2.3-0.1-4.3-0.1-6.1h-0.4c-2.7,4.2-6.3,7.7-10.8,10.4c-4.5,2.7-9.9,4-16.2,4c-4.2,0-8.2-0.5-11.9-1.6
		c-3.7-1.1-6.9-2.6-9.7-4.7c-2.8-2-4.9-4.6-6.6-7.6c-1.6-3-2.5-6.6-2.5-10.5c0-6.8,1.8-12.1,5.3-16c3.5-3.9,7.9-6.7,13.1-8.6
		c5.2-1.9,10.8-3,16.9-3.5c6-0.5,11.6-0.7,16.6-0.7h5.3v-2.5c0-6-1.8-10.5-5.4-13.5c-3.6-3-8.6-4.6-15-4.6c-4.5,0-8.8,0.7-13.1,2.2
		c-4.3,1.5-8.1,3.7-11.3,6.8L726,351.7z M765.7,383.9c-8.8,0-15.7,1.2-20.9,3.7c-5.2,2.5-7.7,6.5-7.7,12.1c0,5.2,1.7,8.8,5.2,11
		c3.5,2.2,7.8,3.2,12.9,3.2c4,0,7.5-0.7,10.4-2c3-1.3,5.5-3.1,7.5-5.4c2-2.2,3.5-4.8,4.6-7.8c1.1-3,1.6-6.2,1.8-9.6v-5.3H765.7z"/>
	<path id="XMLID_95_" class="st0" d="M815,290.6h13.7v132.8H815V290.6z"/>
	<path id="XMLID_97_" class="st0" d="M896.7,352.8h-24.2v41.1c0,2.7,0.1,5.2,0.2,7.5c0.1,2.3,0.6,4.3,1.4,6c0.8,1.7,2,3,3.7,4
		c1.6,1,4,1.5,7,1.5c2,0,4-0.2,6.1-0.7c2.1-0.5,4.1-1.2,6-2.1l0.5,12.5c-2.3,1.1-4.9,1.8-7.8,2.3c-2.9,0.5-5.6,0.7-8.2,0.7
		c-4.9,0-8.8-0.6-11.8-1.9c-2.9-1.3-5.2-3.1-6.8-5.4c-1.6-2.3-2.7-5.2-3.2-8.7c-0.5-3.5-0.8-7.3-0.8-11.5v-45.1h-17.9v-11.6h17.9
		v-23.4h13.7v23.4h24.2V352.8z"/>
	<path id="XMLID_99_" class="st0" d="M909.3,290.6H923v62h0.4c0.9-1.6,2.2-3.2,3.9-4.8c1.6-1.6,3.6-3,5.9-4.3
		c2.3-1.3,4.8-2.3,7.6-3.2c2.8-0.8,5.8-1.2,9-1.2c5.4,0,10,0.8,14,2.5c3.9,1.6,7.2,3.9,9.7,6.8c2.6,2.9,4.5,6.5,5.7,10.6
		c1.2,4.2,1.8,8.7,1.8,13.6v50.8h-13.7V374c0-6.9-1.5-12.4-4.6-16.3c-3-4-7.8-6-14.2-6c-4.4,0-8.3,0.8-11.5,2.3
		c-3.2,1.5-5.9,3.7-7.9,6.5c-2,2.8-3.6,6.1-4.6,10c-1,3.9-1.5,8.1-1.5,12.8v40h-13.7V290.6z"/>
</g>
</svg>
