<?xml version="1.0" standalone="no"?>
<!DOCTYPE svg PUBLIC "-//W3C//DTD SVG 20010904//EN"
 "http://www.w3.org/TR/2001/REC-SVG-20010904/DTD/svg10.dtd">
<svg version="1.0" xmlns="http://www.w3.org/2000/svg"
 width="482.000000pt" height="482.000000pt" viewBox="0 0 482.000000 482.000000"
 preserveAspectRatio="xMidYMid meet">
<metadata>
Created by potrace 1.11, written by Peter Selinger 2001-2013
</metadata>
<g transform="translate(0.000000,482.000000) scale(0.100000,-0.100000)"
fill="#000000" stroke="none">
<path d="M2735 4692 c-91 -32 -150 -84 -193 -172 l-27 -55 -2 -610 c-2 -500 1
-624 13 -685 43 -221 134 -393 293 -550 142 -141 294 -226 486 -274 143 -35
311 -37 454 -5 319 71 586 282 720 571 58 123 67 155 91 298 5 30 8 325 7 655
-2 592 -2 601 -24 647 -30 66 -96 133 -162 165 -54 27 -62 28 -251 31 -220 4
-257 -2 -294 -51 -34 -45 -39 -95 -15 -145 33 -66 63 -74 272 -76 155 -1 180
-3 191 -18 9 -13 12 -148 11 -590 -2 -315 -5 -584 -9 -598 -3 -14 -9 -41 -13
-60 -28 -152 -166 -346 -316 -449 -218 -148 -526 -168 -762 -48 -205 103 -363
310 -407 531 -17 89 -19 1190 -2 1214 11 15 34 17 176 18 206 1 228 5 267 50
58 65 43 159 -32 204 -29 18 -51 20 -227 20 -159 -1 -204 -4 -245 -18z"/>
<path d="M1147 3904 c-1 -1 -27 -4 -57 -8 -82 -9 -107 -15 -201 -46 -316 -107
-546 -361 -635 -700 -26 -98 -28 -303 -4 -410 45 -209 129 -360 282 -510 334
-328 883 -362 1258 -77 120 92 222 214 290 346 20 40 69 179 76 216 2 11 6 31
10 45 13 55 13 267 -1 340 -66 364 -333 661 -687 764 -47 14 -112 28 -145 32
-54 6 -181 12 -186 8z m219 -295 c473 -116 687 -649 426 -1059 -80 -126 -221
-233 -377 -286 -69 -23 -97 -27 -200 -28 -134 0 -202 14 -308 64 -151 71 -254
172 -330 325 -54 108 -71 184 -69 315 4 446 426 775 858 669z"/>
<path d="M1117 3206 c-188 -70 -259 -278 -150 -437 113 -164 362 -167 472 -5
104 153 55 343 -110 427 -53 27 -161 34 -212 15z"/>
<path d="M3458 2040 c-22 -18 -39 -43 -44 -63 -4 -17 -8 -192 -10 -387 -2
-347 -4 -384 -25 -479 -74 -337 -349 -637 -684 -746 -133 -43 -324 -60 -470
-41 -205 27 -430 142 -585 298 -193 193 -286 418 -296 713 -6 191 -9 204 -40
238 -63 68 -166 59 -215 -19 -18 -30 -20 -49 -20 -171 0 -148 4 -198 27 -308
51 -248 169 -461 359 -650 117 -117 212 -187 325 -241 159 -76 269 -111 410
-132 90 -14 351 -6 438 12 399 84 737 343 915 701 37 73 92 221 101 271 3 16
7 40 10 54 20 97 24 188 25 515 1 346 0 372 -18 399 -48 72 -139 89 -203 36z"/>
</g>
</svg>
